<svg xmlns="http://www.w3.org/2000/svg" viewBox="0 0 520 355" width="520" height="355" role="img" aria-label="A2AX layered architecture diagram">
  <defs>
    <style>
      .layer-box { fill: #f6f8fa; stroke: #d0d7de; stroke-width: 1.5; }
      .layer1 { fill: #ddf4ff; stroke: #54aeff; }
      .layer2 { fill: #dafbe1; stroke: #3fb950; }
      .layer3 { fill: #fff8c5; stroke: #d4a72c; }
      .node { fill: #fff; stroke: #57606a; stroke-width: 1; }
      .arrow { stroke: #57606a; stroke-width: 1.5; fill: none; }
      .label { font: 11px -apple-system, BlinkMacSystemFont, 'Segoe UI', sans-serif; fill: #24292f; }
      .title { font: 12px -apple-system, BlinkMacSystemFont, 'Segoe UI', sans-serif; font-weight: 600; fill: #24292f; }
    </style>
  </defs>
  <!-- Layer 3: Services (Future) -->
  <rect class="layer-box layer3" x="20" y="20" width="480" height="70" rx="6"/>
  <text class="title" x="36" y="42">Layer 3: Services (Future)</text>
  <rect class="node" x="40" y="52" width="100" height="28" rx="4"/>
  <text class="label" x="90" y="70" text-anchor="middle">Managed trust graph</text>
  <rect class="node" x="155" y="52" width="90" height="28" rx="4"/>
  <text class="label" x="200" y="70" text-anchor="middle">Dashboards</text>
  <rect class="node" x="260" y="52" width="80" height="28" rx="4"/>
  <text class="label" x="300" y="70" text-anchor="middle">Analytics</text>
  <rect class="node" x="355" y="52" width="130" height="28" rx="4"/>
  <text class="label" x="420" y="70" text-anchor="middle">Economic services</text>
  <!-- Layer 2: Optional Extensions -->
  <rect class="layer-box layer2" x="20" y="110" width="480" height="95" rx="6"/>
  <text class="title" x="36" y="132">Layer 2: Optional Extensions</text>
  <rect class="node" x="120" y="162" width="110" height="28" rx="4"/>
  <text class="label" x="175" y="180" text-anchor="middle">TrustScoring</text>
  <rect class="node" x="255" y="162" width="70" height="28" rx="4"/>
  <text class="label" x="290" y="180" text-anchor="middle">Escrow</text>
  <rect class="node" x="350" y="162" width="100" height="28" rx="4"/>
  <text class="label" x="400" y="180" text-anchor="middle">Compliance</text>
  <!-- Layer 1: A2AX Protocol -->
  <rect class="layer-box layer1" x="20" y="225" width="480" height="120" rx="6"/>
  <text class="title" x="36" y="247">Layer 1: A2AX Protocol</text>
  <rect class="node" x="40" y="260" width="55" height="28" rx="4"/>
  <text class="label" x="67" y="278" text-anchor="middle">identity</text>
  <rect class="node" x="105" y="260" width="55" height="28" rx="4"/>
  <text class="label" x="132" y="278" text-anchor="middle">crypto</text>
  <rect class="node" x="170" y="260" width="75" height="28" rx="4"/>
  <text class="label" x="207" y="278" text-anchor="middle">handshake</text>
  <rect class="node" x="255" y="260" width="85" height="28" rx="4"/>
  <text class="label" x="297" y="278" text-anchor="middle">permissions</text>
  <rect class="node" x="350" y="260" width="80" height="28" rx="4"/>
  <text class="label" x="390" y="278" text-anchor="middle">attestation</text>
  <rect class="node" x="440" y="260" width="50" height="28" rx="4"/>
  <text class="label" x="465" y="278" text-anchor="middle">events</text>
  <rect class="node" x="40" y="300" width="50" height="28" rx="4"/>
  <text class="label" x="65" y="318" text-anchor="middle">audit</text>
  <rect class="node" x="100" y="300" width="55" height="28" rx="4"/>
  <text class="label" x="127" y="318" text-anchor="middle">version</text>
  <rect class="node" x="165" y="300" width="75" height="28" rx="4"/>
  <text class="label" x="202" y="318" text-anchor="middle">revocation</text>
  <!-- Arrows: L2→L1 (solid), L3→L2 and L3→L1 (dashed) -->
  <defs>
    <marker id="arrow" markerWidth="8" markerHeight="8" refX="4" refY="4" orient="auto">
      <path d="M 0 0 L 8 4 L 0 8 Z" fill="#57606a"/>
    </marker>
  </defs>
  <path class="arrow" d="M 260 205 L 260 225" marker-end="url(#arrow)"/>
  <path class="arrow" d="M 400 90 L 400 110" stroke-dasharray="4 4" marker-end="url(#arrow)"/>
  <path class="arrow" d="M 400 90 L 400 225" stroke-dasharray="4 4" marker-end="url(#arrow)"/>
</svg>
